<?xml version="1.0" encoding="UTF-8" standalone="no"?>
<svg
   xmlns:dc="http://purl.org/dc/elements/1.1/"
   xmlns:cc="http://creativecommons.org/ns#"
   xmlns:rdf="http://www.w3.org/1999/02/22-rdf-syntax-ns#"
   xmlns:svg="http://www.w3.org/2000/svg"
   xmlns="http://www.w3.org/2000/svg"
   viewBox="0 0 125.26667 119.88"
   height="119.88"
   width="125.26667"
   xml:space="preserve"
   id="svg2"
   version="1.1"><metadata
     id="metadata8"><rdf:RDF><cc:Work
         rdf:about=""><dc:format>image/svg+xml</dc:format><dc:type
           rdf:resource="http://purl.org/dc/dcmitype/StillImage" /></cc:Work></rdf:RDF></metadata><defs
     id="defs6" /><g
     transform="matrix(1.3333333,0,0,-1.3333333,0,119.88)"
     id="g10"><g
       transform="scale(0.1)"
       id="g12"><path
         id="path14"
         style="fill:#ffffff;fill-opacity:1;fill-rule:nonzero;stroke:none"
         d="m 137.922,258.176 c -2.524,7.578 -6.984,16.48 -16.859,16.48 -6.731,0 -11.661,-5.047 -11.661,-11.914 0,-6.617 4.336,-10.457 14.93,-15.758 12.621,-6.132 21.281,-12.863 21.281,-24.777 0,-13.711 -11.664,-24.426 -29.234,-24.426 -4.34,0 -8.535,0.617 -12.149,1.684 -3.371,0.965 -5.6636,1.922 -7.3237,2.644 -1.1016,3.02 -2.6368,13.133 -3.4961,20.457 l 4.207,1.321 c 2.4098,-7.696 9.5118,-21.184 21.0388,-21.184 7.344,0 12.035,5.063 12.035,12.641 0,7.105 -5.293,11.558 -14.312,16.375 -12.391,6.242 -20.9298,12.746 -20.9298,24.297 0,13.23 10.4568,23.574 27.5708,23.574 7.671,0 14.539,-2.41 16.707,-3.25 0.476,-4.445 1.32,-9.738 2.293,-17.199 l -4.098,-0.965" /><path
         id="path16"
         style="fill:#ffffff;fill-opacity:1;fill-rule:nonzero;stroke:none"
         d="m 209.609,274.543 c -12.043,0 -21.527,-12.883 -21.527,-33.691 0,-20.559 9.137,-38.008 24.547,-38.008 11.402,0 20.684,11.179 20.684,33.308 0,23.957 -9.75,38.391 -23.571,38.391 z m 2.411,4.93 c 21.757,0 39.691,-16.133 39.691,-39.942 0,-25.984 -18.652,-41.75 -41.262,-41.75 -24.062,0 -40.781,17.688 -40.781,40.785 0,20.692 14.68,40.907 42.227,40.907 h 0.125" /><path
         id="path18"
         style="fill:#ffffff;fill-opacity:1;fill-rule:nonzero;stroke:none"
         d="m 355.867,273.574 c -6.621,-0.359 -9.605,-2.89 -10.215,-7.097 -0.601,-3.735 -1.089,-8.184 -1.089,-16.719 v -13.117 c 0,-12.754 -1.911,-22.864 -8.657,-30.078 -5.523,-5.762 -13.711,-8.782 -22.25,-8.782 -7.953,0 -15.519,1.684 -21.285,6.262 -6.851,5.293 -10,14.191 -10,28.273 v 28.258 c 0,11.321 -1.187,12.16 -10.098,13 v 4.207 h 36.204 v -4.207 c -8.782,-0.84 -9.977,-1.679 -9.977,-13 v -26.09 c 0,-18.058 6.488,-28.527 19.488,-28.527 14.317,0 20.559,10.84 20.559,30.918 v 12.883 c 0,8.535 -0.578,13.101 -1.203,16.719 -0.586,4.207 -3.477,6.621 -11.653,7.097 v 4.207 h 30.176 v -4.207" /><path
         id="path20"
         style="fill:#ffffff;fill-opacity:1;fill-rule:nonzero;stroke:none"
         d="m 443.082,257.219 c -1.449,6.25 -3.121,10.222 -5.301,12.39 -2.027,2.161 -5.176,2.879 -12.152,2.879 h -5.524 v -56.902 c 0,-10.227 1.211,-10.945 11.79,-11.785 v -4.223 h -39.219 v 4.223 c 10.105,0.84 11.308,1.558 11.308,11.785 v 56.902 h -4.082 c -9.875,0 -12.043,-1.316 -13.839,-3.242 -1.938,-2.051 -3.497,-6.141 -5.063,-12.144 h -4.34 c 0.488,8.777 1.223,17.554 1.477,23.691 H 381 c 1.922,-2.773 3.496,-3.012 6.859,-3.012 h 48.371 c 3.247,0 4.922,0.727 6.961,3.012 h 2.903 c 0.105,-5.051 0.738,-15.645 1.316,-23.344 l -4.328,-0.23" /><path
         id="path22"
         style="fill:#ffffff;fill-opacity:1;fill-rule:nonzero;stroke:none"
         d="m 558.191,273.574 c -9.382,-0.84 -10.093,-1.551 -10.093,-11.789 v -46.316 c 0,-10.11 0.965,-10.828 10.093,-11.668 v -4.223 h -36.699 v 4.223 c 9.641,0.84 10.488,1.679 10.488,11.785 v 22.375 h -32.859 v -22.375 c 0,-10.227 0.969,-10.945 9.863,-11.785 v -4.223 h -35.847 v 4.223 c 8.789,0.84 9.851,1.558 9.851,11.785 v 46.199 c 0,10.238 -1.062,10.949 -10.328,11.789 v 4.207 h 36.078 v -4.207 c -8.648,-0.84 -9.617,-1.551 -9.617,-11.789 v -17.683 h 32.859 v 17.683 c 0,10.238 -0.984,10.949 -9.878,11.789 v 4.207 h 36.089 v -4.207" /><path
         id="path24"
         style="fill:#ffffff;fill-opacity:1;fill-rule:nonzero;stroke:none"
         d="m 649.363,219.551 c -0.73,-5.399 -3.23,-16.348 -4.207,-19.973 h -61.355 v 4.223 c 10.23,0.84 11.426,1.558 11.426,11.785 v 46.199 c 0,10.461 -1.196,11.059 -9.739,11.789 v 4.207 h 56.641 c 0.144,-2.156 0.742,-10.586 1.23,-18.035 l -4.336,-0.605 c -1.191,4.199 -2.761,8.175 -4.921,10.332 -2.059,2.168 -5.293,3.015 -12.059,3.015 h -5.766 c -4.441,0 -4.929,-0.242 -4.929,-4.195 v -25.527 h 8.078 c 10.094,0 11.637,0.601 13.34,9.043 h 4.312 v -24.297 h -4.312 c -1.703,8.64 -3.137,9.129 -13.34,9.129 h -8.078 v -20.813 c 0,-5.66 0.488,-8.648 2.89,-9.871 2.18,-0.945 6.242,-1.191 10.813,-1.191 6.148,0 10.476,0.847 13.355,3.839 2.309,2.645 4.465,6.504 6.75,11.797 l 4.207,-0.851" /><path
         id="path26"
         style="fill:#ffffff;fill-opacity:1;fill-rule:nonzero;stroke:none"
         d="m 702.043,237.961 c 5.066,0 9.141,0.855 11.785,3.238 4.094,3.379 5.781,8.188 5.781,14.336 0,12.758 -7.461,17.445 -14.187,17.445 -3.027,0 -4.692,-0.492 -5.422,-1.21 -0.84,-0.735 -1.082,-1.926 -1.082,-4.454 v -29.355 z m 45.254,-39.465 c -0.727,0 -2.18,0.137 -3.645,0.137 -15.117,0.715 -19.824,4.07 -24.636,11.648 -3.149,4.961 -6.379,11.43 -9.868,17.699 -1.921,3.739 -4.097,5.157 -7.925,5.293 h -2.305 v -17.558 c 0,-9.863 1.219,-11.074 10.23,-11.914 v -4.223 H 672.82 v 4.223 c 9.016,0.84 10.325,2.051 10.325,11.914 v 46.187 c 0,9.621 -1.067,10.832 -9.864,11.672 v 4.207 h 33.828 c 10.457,0 16.59,-1.199 21.426,-4.566 4.778,-3.125 8.145,-8.547 8.145,-15.996 0,-10.586 -6.961,-16.25 -15.039,-19.61 1.679,-3.488 6.281,-11.554 9.765,-17.082 4.324,-6.621 6.856,-10.461 9.258,-13.015 2.649,-2.746 4.563,-4.199 7.344,-5.149 l -0.711,-3.867" /><path
         id="path28"
         style="fill:#ffffff;fill-opacity:1;fill-rule:nonzero;stroke:none"
         d="m 850,273.574 c -6.504,-0.359 -9.023,-1.933 -9.641,-7.453 -0.347,-3.726 -1.074,-9.391 -1.074,-19.969 v -47.754 h -5.789 l -50,59.895 h -0.383 v -27.055 c 0,-10.601 0.61,-15.894 0.981,-19.5 0.586,-5.293 2.636,-7.578 11.519,-7.937 v -4.223 h -29.461 v 4.223 c 6.746,0.476 9.512,2.422 9.993,7.578 0.476,3.965 1.199,9.258 1.199,19.859 v 25.141 c 0,7.812 -0.242,10.098 -2.539,12.867 -2.149,2.883 -4.934,3.852 -9.981,4.328 v 4.207 h 22.254 l 45.957,-52.808 h 0.461 v 21.179 c 0,10.578 -0.703,16.243 -0.945,19.727 -0.598,5.156 -3.125,7.219 -11.906,7.695 v 4.207 H 850 v -4.207" /><path
         id="path30"
         style="fill:#ffffff;fill-opacity:1;fill-rule:nonzero;stroke:none"
         d="m 146.934,95.0391 v 3.8281 c 8.183,0.8789 8.855,1.6528 8.75,11.6988 l -0.215,42.063 H 154.91 L 130.754,95.8125 h -3.051 l -22.305,55.7185 h -0.418 l -1.308,-28.523 c -0.442,-9.063 -0.442,-14.192 0,-17.567 0.437,-4.921 2.621,-5.9097 9.828,-6.5738 V 95.0391 H 87.2852 v 3.8281 c 6.125,0.5351 8.1914,2.5308 8.832,6.3478 0.6797,3.484 1.543,9.172 2.3203,20.539 l 1.7505,21.621 c 0.859,12.461 0.105,13.984 -9.2974,14.859 v 3.813 H 113.5 L 134.578,118.203 156,166.047 h 21.969 v -3.813 c -8.739,-0.875 -9.192,-1.746 -8.981,-10.808 l 1,-40.86 c 0.215,-10.046 0.766,-10.8199 9.289,-11.6988 v -3.8281 h -32.343" /><path
         id="path32"
         style="fill:#ffffff;fill-opacity:1;fill-rule:nonzero;stroke:none"
         d="m 201.223,95.0391 v 3.8281 c 8.086,0.7617 9.058,1.5348 9.058,10.7028 v 41.856 c 0,9.289 -0.972,10.039 -9.058,10.808 v 3.813 h 32.765 v -3.813 c -8.082,-0.769 -9.054,-1.519 -9.054,-10.808 V 109.57 c 0,-9.168 0.972,-9.9411 9.054,-10.7028 v -3.8281 h -32.765" /><path
         id="path34"
         style="fill:#ffffff;fill-opacity:1;fill-rule:nonzero;stroke:none"
         d="m 298.77,148.254 c -2.301,6.883 -6.329,14.961 -15.301,14.961 -6.114,0 -10.586,-4.582 -10.586,-10.813 0,-6.004 3.949,-9.5 13.543,-14.304 11.472,-5.571 19.336,-11.692 19.336,-22.524 0,-12.449 -10.602,-22.1677 -26.551,-22.1677 -3.93,0 -7.746,0.5468 -11.035,1.5429 -3.047,0.8633 -5.141,1.7422 -6.66,2.3946 -0.981,2.7222 -2.395,11.9062 -3.157,18.5742 l 3.809,1.199 c 2.195,-7 8.633,-19.2342 19.121,-19.2342 6.672,0 10.938,4.5972 10.938,11.4652 0,6.445 -4.817,10.496 -13.016,14.882 -11.25,5.665 -19.008,11.571 -19.008,22.059 0,12.024 9.516,21.426 25.024,21.426 7,0 13.23,-2.195 15.171,-2.957 0.454,-4.043 1.211,-8.852 2.086,-15.625 l -3.714,-0.879" /><path
         id="path36"
         style="fill:#ffffff;fill-opacity:1;fill-rule:nonzero;stroke:none"
         d="m 369.773,148.254 c -2.289,6.883 -6.335,14.961 -15.277,14.961 -6.137,0 -10.594,-4.582 -10.594,-10.813 0,-6.004 3.918,-9.5 13.508,-14.304 11.492,-5.571 19.348,-11.692 19.348,-22.524 0,-12.449 -10.574,-22.1677 -26.555,-22.1677 -3.926,0 -7.73,0.5468 -11.015,1.5429 -3.071,0.8633 -5.133,1.7422 -6.661,2.3946 -0.996,2.7222 -2.422,11.9062 -3.172,18.5742 l 3.829,1.199 c 2.168,-7 8.625,-19.2342 19.113,-19.2342 6.668,0 10.926,4.5972 10.926,11.4652 0,6.445 -4.817,10.496 -13.02,14.882 -11.238,5.665 -19.004,11.571 -19.004,22.059 0,12.024 9.516,21.426 25.024,21.426 7,0 13.218,-2.195 15.195,-2.957 0.43,-4.043 1.211,-8.852 2.074,-15.625 l -3.719,-0.879" /><path
         id="path38"
         style="fill:#ffffff;fill-opacity:1;fill-rule:nonzero;stroke:none"
         d="m 398.938,95.0391 v 3.8281 c 8.082,0.7617 9.054,1.5348 9.054,10.7028 v 41.856 c 0,9.289 -0.972,10.039 -9.054,10.808 v 3.813 h 32.781 v -3.813 c -8.086,-0.769 -9.067,-1.519 -9.067,-10.808 V 109.57 c 0,-9.168 0.981,-9.9411 9.067,-10.7028 v -3.8281 h -32.781" /><path
         id="path40"
         style="fill:#ffffff;fill-opacity:1;fill-rule:nonzero;stroke:none"
         d="m 496.504,148.254 c -2.324,6.883 -6.348,14.961 -15.305,14.961 -6.133,0 -10.601,-4.582 -10.601,-10.813 0,-6.004 3.945,-9.5 13.55,-14.304 11.477,-5.571 19.329,-11.692 19.329,-22.524 0,-12.449 -10.579,-22.1677 -26.543,-22.1677 -3.942,0 -7.754,0.5468 -11.043,1.5429 -3.039,0.8633 -5.121,1.7422 -6.653,2.3946 -0.984,2.7222 -2.402,11.9062 -3.191,18.5742 l 3.855,1.199 c 2.176,-7 8.621,-19.2342 19.114,-19.2342 6.668,0 10.918,4.5972 10.918,11.4652 0,6.445 -4.805,10.496 -13,14.882 -11.258,5.665 -19.012,11.571 -19.012,22.059 0,12.024 9.488,21.426 25.016,21.426 6.996,0 13.214,-2.195 15.199,-2.957 0.41,-4.043 1.199,-8.852 2.066,-15.625 l -3.699,-0.879" /><path
         id="path42"
         style="fill:#ffffff;fill-opacity:1;fill-rule:nonzero;stroke:none"
         d="m 567.48,148.254 c -2.285,6.883 -6.328,14.961 -15.285,14.961 -6.132,0 -10.601,-4.582 -10.601,-10.813 0,-6.004 3.941,-9.5 13.562,-14.304 11.465,-5.571 19.317,-11.692 19.317,-22.524 0,-12.449 -10.586,-22.1677 -26.543,-22.1677 -3.914,0 -7.754,0.5468 -11.028,1.5429 -3.054,0.8633 -5.132,1.7422 -6.675,2.3946 -0.957,2.7222 -2.407,11.9062 -3.149,18.5742 l 3.813,1.199 c 2.168,-7 8.64,-19.2342 19.129,-19.2342 6.66,0 10.91,4.5972 10.91,11.4652 0,6.445 -4.817,10.496 -13,14.882 -11.25,5.665 -18.992,11.571 -18.992,22.059 0,12.024 9.5,21.426 25.007,21.426 6.985,0 13.235,-2.195 15.176,-2.957 0.457,-4.043 1.223,-8.852 2.078,-15.625 l -3.719,-0.879" /><path
         id="path44"
         style="fill:#ffffff;fill-opacity:1;fill-rule:nonzero;stroke:none"
         d="m 596.66,95.0391 v 3.8281 c 8.086,0.7617 9.055,1.5348 9.055,10.7028 v 41.856 c 0,9.289 -0.969,10.039 -9.055,10.808 v 3.813 h 32.774 v -3.813 c -8.106,-0.769 -9.075,-1.519 -9.075,-10.808 V 109.57 c 0,-9.168 0.969,-9.9411 9.075,-10.7028 V 95.0391 H 596.66" /><path
         id="path46"
         style="fill:#ffffff;fill-opacity:1;fill-rule:nonzero;stroke:none"
         d="m 677.273,128.906 c 1.313,-0.547 3.606,-1.086 5.903,-1.086 4.031,0 12.793,2.844 12.793,17.602 0,12.344 -7.004,16.387 -13.672,16.387 -2.07,0 -3.379,-0.547 -4.043,-1.094 -0.649,-0.664 -0.981,-1.762 -0.981,-3.399 z m 7.114,37.141 c 8.601,0 14.851,-1.184 19.109,-4.238 5.137,-3.496 8.098,-8.977 8.098,-16.075 0,-14.648 -10.824,-21.3 -22.285,-22.726 -1.653,-0.203 -3.379,-0.203 -4.602,-0.203 l -7.434,1.738 V 109.57 c 0,-9.277 0.981,-10.0387 10.383,-10.8005 v -3.7304 h -33.972 v 3.7304 c 8.179,0.7618 9.175,1.5235 9.175,10.8005 v 41.856 c 0,9.289 -0.996,9.933 -8.523,10.808 v 3.813 h 30.051" /><path
         id="path48"
         style="fill:#ffffff;fill-opacity:1;fill-rule:nonzero;stroke:none"
         d="m 756.902,128.906 c 1.321,-0.547 3.618,-1.086 5.891,-1.086 4.055,0 12.793,2.844 12.793,17.602 0,12.344 -6.981,16.387 -13.652,16.387 -2.079,0 -3.387,-0.547 -4.036,-1.094 -0.652,-0.664 -0.996,-1.762 -0.996,-3.399 z m 7.114,37.141 c 8.64,0 14.863,-1.184 19.097,-4.238 5.157,-3.496 8.11,-8.977 8.11,-16.075 0,-14.648 -10.825,-21.3 -22.297,-22.726 -1.629,-0.203 -3.391,-0.203 -4.59,-0.203 l -7.434,1.738 V 109.57 c 0,-9.277 0.996,-10.0387 10.395,-10.8005 v -3.7304 h -33.984 v 3.7304 c 8.191,0.7618 9.167,1.5235 9.167,10.8005 v 41.856 c 0,9.289 -0.976,9.933 -8.515,10.808 v 3.813 h 30.051" /><path
         id="path50"
         style="fill:#ffffff;fill-opacity:1;fill-rule:nonzero;stroke:none"
         d="m 811.953,95.0391 v 3.8281 c 8.098,0.7617 9.07,1.5348 9.07,10.7028 v 41.856 c 0,9.289 -0.972,10.039 -9.07,10.808 v 3.813 h 32.793 v -3.813 c -8.105,-0.769 -9.082,-1.519 -9.082,-10.808 V 109.57 c 0,-9.168 0.977,-9.9411 9.082,-10.7028 v -3.8281 h -32.793" /><path
         id="path52"
         style="fill:#ffffff;fill-opacity:1;fill-rule:nonzero;stroke:none"
         d="m 125.195,335.012 c -0.769,3.133 -1.328,4.551 -2.203,5.484 -0.914,1.067 -2.484,1.34 -5.109,1.34 h -2.856 v -22.773 c 0,-5.11 0.5,-5.403 5.555,-5.75 v -2.266 h -18.785 v 2.266 c 4.824,0.347 5.242,0.64 5.242,5.75 v 22.773 h -1.902 c -3.782,0 -4.981,-0.488 -5.9104,-1.633 -0.8594,-0.992 -1.4922,-2.555 -2.1368,-5.125 h -2.2734 c 0.2031,4.348 0.5742,8.113 0.6367,10.75 h 1.6367 c 0.8711,-1.14 1.4375,-1.277 3.1372,-1.277 h 22.136 c 1.707,0 1.985,0.273 2.832,1.277 h 1.653 c 0.054,-2.476 0.347,-7.683 0.703,-10.672 l -2.356,-0.144" /><path
         id="path54"
         style="fill:#ffffff;fill-opacity:1;fill-rule:nonzero;stroke:none"
         d="m 166.277,311.047 v 2.266 c 4.121,0.347 4.629,0.781 4.629,5.75 v 8.117 h -14.527 v -8.117 c 0,-4.969 0.418,-5.477 4.273,-5.75 v -2.266 H 143.43 v 2.266 c 4.543,0.273 4.976,0.703 4.976,5.75 v 17.441 c 0,5.059 -0.433,5.422 -5.125,5.832 v 2.215 h 17.52 v -2.215 c -4.004,-0.41 -4.422,-0.703 -4.422,-5.832 v -6.121 h 14.527 v 6.121 c 0,5.059 -0.59,5.422 -4.574,5.832 v 2.215 h 17.367 v -2.071 c -4.414,-0.554 -4.844,-0.917 -4.844,-5.976 v -17.441 c 0,-5.047 0.43,-5.403 4.844,-5.75 v -2.266 h -17.422" /><path
         id="path56"
         style="fill:#ffffff;fill-opacity:1;fill-rule:nonzero;stroke:none"
         d="m 231.035,320.203 c -0.351,-2.476 -1.496,-7.754 -1.933,-9.156 h -29.239 v 2.266 c 4.844,0.347 5.254,0.703 5.254,5.75 v 17.589 c 0,5.047 -0.41,5.332 -4.836,5.614 v 2.285 h 27.461 c 0.102,-1.438 0.293,-4.988 0.578,-8.406 l -2.273,-0.137 c -0.731,2.137 -1.203,3.203 -1.992,4.195 -0.93,1.145 -2.278,1.633 -5.825,1.633 h -3.07 c -1.996,0 -2.062,-0.137 -2.062,-2.059 v -9.828 h 4.468 c 4.075,0 4.563,0.434 5.137,3.852 h 2.348 v -10.879 h -2.348 c -0.574,3.328 -1.062,3.98 -5.137,3.98 h -4.468 v -7.617 c 0,-2.984 0.359,-4.336 1.199,-4.844 0.945,-0.632 2.488,-0.781 5.351,-0.781 3.125,0 4.903,0.434 6.176,1.86 1.012,0.996 1.918,2.625 2.914,4.902 l 2.297,-0.219" /><path
         id="path58"
         style="fill:#ffffff;fill-opacity:1;fill-rule:nonzero;stroke:none"
         d="m 311.379,342.336 c -3.203,-0.141 -4.516,-0.93 -4.777,-2.988 -0.2,-1.633 -0.418,-3.989 -0.418,-8.594 v -3.918 c 0,-5.559 -0.989,-10.039 -3.989,-12.938 -2.422,-2.355 -6.05,-3.789 -10.093,-3.789 -3.711,0 -7.137,0.782 -9.758,2.696 -2.989,2.207 -4.754,5.984 -4.754,12.105 v 11.82 c 0,4.903 -0.434,5.196 -4.848,5.606 v 2.215 h 17.641 v -2.215 c -4.414,-0.41 -4.758,-0.703 -4.758,-5.606 v -10.109 c 0,-8.328 3.137,-12.391 8.66,-12.391 5.91,0 8.828,4.493 8.828,12.887 v 3.559 c 0,5.047 -0.215,7.039 -0.41,8.672 -0.293,2.129 -1.648,2.793 -5.625,2.988 v 2.215 h 14.301 v -2.215" /><path
         id="path60"
         style="fill:#ffffff;fill-opacity:1;fill-rule:nonzero;stroke:none"
         d="m 364.402,342.336 c -3.054,-0.195 -4.617,-0.859 -4.859,-2.988 -0.195,-2.063 -0.418,-4.336 -0.418,-9.172 v -19.485 h -3.543 l -21.422,25.383 -0.09,-0.066 V 325.48 c 0,-4.984 0.239,-7.335 0.442,-9.027 0.277,-2.301 1.777,-2.926 5.64,-3.211 v -2.195 h -14.246 v 2.195 c 3.071,0.285 4.477,0.91 4.77,3.211 0.215,1.77 0.48,4.043 0.48,9.027 v 9.598 c 0,5.84 -1.261,6.906 -6.039,7.258 v 2.215 h 11.668 l 19.211,-21.848 h 0.149 v 7.473 c 0,4.836 -0.215,7.109 -0.43,8.965 -0.293,2.336 -1.567,3 -5.617,3.195 v 2.215 h 14.304 v -2.215" /><path
         id="path62"
         style="fill:#ffffff;fill-opacity:1;fill-rule:nonzero;stroke:none"
         d="m 379.211,311.047 v 2.266 c 4.41,0.273 4.91,0.64 4.91,5.476 v 17.941 c 0,4.903 -0.5,5.196 -4.91,5.536 v 2.285 h 17.785 v -2.285 c -4.484,-0.282 -4.918,-0.567 -4.918,-5.536 v -17.871 c 0,-4.906 0.434,-5.273 4.918,-5.546 v -2.266 h -17.785" /><path
         id="path64"
         style="fill:#ffffff;fill-opacity:1;fill-rule:nonzero;stroke:none"
         d="m 450.938,342.266 c -3.696,-0.496 -4.622,-1.211 -6.758,-5.325 -2.492,-4.707 -7.278,-16.023 -11.59,-26.621 h -2.719 c -3.902,9.321 -8.183,19.27 -11.656,27.461 -1.645,3.696 -2.91,4.145 -5.973,4.485 v 2.285 h 17.278 v -2.285 l -1.778,-0.282 c -1.918,-0.351 -2.207,-1 -1.211,-3.554 1.992,-4.77 4.758,-11.528 7.457,-18.086 2.157,4.922 5.992,14.734 6.918,17.652 0.926,2.922 0.703,3.703 -1.785,4.067 l -1.418,0.203 v 2.285 h 13.235 v -2.285" /><path
         id="path66"
         style="fill:#ffffff;fill-opacity:1;fill-rule:nonzero;stroke:none"
         d="m 497.129,320.203 c -0.352,-2.476 -1.504,-7.754 -1.926,-9.156 h -29.234 v 2.266 c 4.824,0.347 5.254,0.703 5.254,5.75 v 17.589 c 0,5.047 -0.43,5.332 -4.821,5.614 v 2.285 h 27.453 c 0.063,-1.438 0.293,-4.988 0.571,-8.406 l -2.278,-0.137 c -0.71,2.137 -1.21,3.203 -1.992,4.195 -0.945,1.145 -2.285,1.633 -5.82,1.633 h -3.074 c -1.985,0 -2.074,-0.137 -2.074,-2.059 v -9.828 h 4.496 c 4.05,0 4.546,0.434 5.125,3.852 h 2.324 v -10.879 h -2.324 c -0.579,3.328 -1.075,3.98 -5.125,3.98 h -4.496 v -7.617 c 0,-2.984 0.363,-4.336 1.234,-4.844 0.906,-0.632 2.476,-0.781 5.332,-0.781 3.125,0 4.898,0.434 6.172,1.86 1.004,0.996 1.929,2.625 2.937,4.902 l 2.266,-0.219" /><path
         id="path68"
         style="fill:#ffffff;fill-opacity:1;fill-rule:nonzero;stroke:none"
         d="m 527.656,327.82 c 2.09,0 3.782,0.215 5.203,1.211 1.719,1.145 2.539,3.285 2.539,5.766 0,5.191 -3.32,7.266 -6.953,7.266 -2.261,0 -2.847,-0.657 -2.847,-2.571 V 327.82 Z m 21.282,-17.207 h -2.278 c -7.258,0 -9.453,1.692 -11.457,4.621 -1.707,2.332 -3.348,5.262 -4.676,7.746 -1.007,1.786 -1.648,2.352 -3.886,2.352 h -1.043 v -6.473 c 0,-4.765 0.425,-5.199 4.929,-5.546 v -2.266 h -17.668 v 2.266 c 4.496,0.273 4.993,0.64 4.993,5.476 v 18.066 c 0,4.844 -0.442,5.129 -4.766,5.481 v 2.215 h 17.977 c 4.093,0 6.781,-0.43 8.988,-1.707 2.344,-1.367 3.836,-3.774 3.836,-6.906 0,-4.485 -3.274,-7.254 -7.117,-8.602 0.925,-1.723 3.281,-5.344 4.976,-7.766 1.77,-2.547 2.774,-3.894 3.984,-5.129 1.133,-1.062 2.356,-1.636 3.5,-1.992 l -0.292,-1.836" /><path
         id="path70"
         style="fill:#ffffff;fill-opacity:1;fill-rule:nonzero;stroke:none"
         d="m 585.359,334.797 c -1.328,4.488 -3.894,8.105 -8.164,8.105 -3.054,0 -5.066,-2.199 -5.066,-4.836 0,-3.269 2.726,-4.609 5.43,-5.695 l 1.828,-0.769 c 5.562,-2.286 9.976,-4.856 9.976,-10.606 0.063,-6.609 -5.625,-10.887 -13.66,-10.887 -4.988,0 -8.555,1.844 -9.902,2.633 -0.488,1.352 -1.199,5.481 -1.746,9.321 l 2.183,0.566 c 1.418,-4.121 5.051,-10.031 10.317,-10.031 3.406,0 5.554,2.218 5.554,5.261 0.059,2.856 -1.992,4.496 -5.476,5.981 l -2.231,0.926 c -4.043,1.632 -9.011,4.55 -9.011,10.105 0,6.32 4.675,10.609 13.078,10.609 3.484,0 6.687,-1.144 8.047,-1.703 0.347,-2.007 0.703,-4.566 1.211,-8.418 l -2.368,-0.562" /><path
         id="path72"
         style="fill:#ffffff;fill-opacity:1;fill-rule:nonzero;stroke:none"
         d="m 605.176,311.047 v 2.266 c 4.402,0.273 4.914,0.64 4.914,5.476 v 17.941 c 0,4.903 -0.512,5.196 -4.914,5.536 v 2.285 h 17.785 v -2.285 c -4.492,-0.282 -4.914,-0.567 -4.914,-5.536 v -17.871 c 0,-4.906 0.422,-5.273 4.914,-5.546 v -2.266 h -17.785" /><path
         id="path74"
         style="fill:#ffffff;fill-opacity:1;fill-rule:nonzero;stroke:none"
         d="m 669.641,335.012 c -0.786,3.133 -1.36,4.551 -2.207,5.484 -0.918,1.067 -2.485,1.34 -5.11,1.34 h -2.859 v -22.773 c 0,-5.11 0.496,-5.403 5.555,-5.75 v -2.266 h -18.782 v 2.266 c 4.825,0.347 5.254,0.64 5.254,5.75 v 22.773 h -1.914 c -3.777,0 -4.976,-0.488 -5.906,-1.633 -0.852,-0.992 -1.492,-2.555 -2.149,-5.125 h -2.265 c 0.215,4.348 0.566,8.113 0.644,10.75 h 1.621 c 0.872,-1.14 1.438,-1.277 3.145,-1.277 h 22.141 c 1.707,0 1.968,0.273 2.832,1.277 h 1.629 c 0.078,-2.476 0.363,-7.683 0.71,-10.672 l -2.339,-0.144" /><path
         id="path76"
         style="fill:#ffffff;fill-opacity:1;fill-rule:nonzero;stroke:none"
         d="m 722.793,342.266 c -3.684,-0.34 -4.695,-1.075 -6.738,-4.063 -1.512,-2.265 -3.352,-5.32 -6.067,-10.383 -0.633,-1.199 -0.84,-1.922 -0.84,-3.125 v -5.906 c 0,-4.637 0.481,-5.129 5.54,-5.476 v -2.266 h -18.997 v 2.266 c 5.129,0.417 5.481,0.781 5.481,5.41 v 5.41 c 0,1.64 -0.293,2.265 -1.055,3.609 -1.863,3.352 -3.699,6.43 -6.199,10.461 -1.926,3.274 -2.855,3.781 -6.035,4.063 v 2.285 h 16.551 v -2.285 l -1.985,-0.34 c -1.57,-0.293 -1.57,-1.008 -0.789,-2.5 2.024,-3.633 4.141,-7.27 5.906,-10.473 2.141,3.852 4.211,7.832 5.207,10.031 0.918,2 0.704,2.715 -1.062,3 l -1.926,0.282 v 2.285 h 13.008 v -2.285" /><path
         id="path78"
         style="fill:#ffffff;fill-opacity:1;fill-rule:nonzero;stroke:none"
         d="m 782.371,342.902 c -4.629,0 -9.051,-4.98 -9.051,-14.297 0,-9.472 4.336,-15.937 10.332,-15.937 4.754,0 8.907,3.785 8.907,14.078 0,8.195 -3.575,16.156 -10.11,16.156 z m 0.715,2.578 c 11.25,0 18.43,-7.628 18.43,-17.218 0,-11.961 -8.957,-18.153 -18.496,-18.153 -12.2,0 -18.645,8.614 -18.645,17.008 0,12.512 10.027,18.363 18.645,18.363 h 0.066" /><path
         id="path80"
         style="fill:#ffffff;fill-opacity:1;fill-rule:nonzero;stroke:none"
         d="m 843.789,335.652 c -0.644,2.063 -1.133,3.332 -1.926,4.414 -0.847,1.125 -2.215,1.86 -5.75,1.86 h -3.484 c -1.867,-0.156 -1.926,-0.09 -1.926,-2.082 v -10.891 h 4.902 c 4.7,0 5.11,0.363 5.911,3.996 h 2.273 v -11.238 h -2.273 c -0.649,4.062 -1.157,4.258 -5.981,4.258 h -4.832 v -7.246 c 0,-4.707 0.496,-5.137 5.535,-5.41 v -2.266 h -18.277 v 2.266 c 4.344,0.273 4.781,0.703 4.781,5.332 v 18.14 c 0,4.848 -0.437,5.199 -4.781,5.481 v 2.285 h 27.527 c 0.098,-1.438 0.215,-4.988 0.575,-8.613 l -2.274,-0.286" /><path
         id="path82"
         style="fill:#ffffff;fill-opacity:1;fill-rule:nonzero;stroke:none"
         d="m 516.105,679.246 c 99.333,-29.18 100.536,-137.5 100.536,-137.5 l 10.214,-2.437 -8.164,-10.411 -0.41,-13.046 9.59,-1.641 -11.824,-26.926 -1.02,-75.066 6.301,-0.821 2.277,-25.089 -85.902,10.41 -120.348,-0.203 -84.031,-9.387 2.645,25.5 4.695,0.215 -0.613,84.031 -12.641,18.77 13.043,5.3 -10.812,24.692 9.812,0.613 c 9.16,110.945 103.199,133.391 103.199,133.391 l -3.265,5.3 -0.199,6.946 3.773,2.957 v 11.633 l 4.383,6.628 2.258,0.801 -1.016,58.137 -3.273,4.703 -0.418,6.527 4.293,1.836 0.199,7.743 21.636,11.027 4.067,5.301 h 11.844 l 4.062,-5.301 20.195,-11.027 -0.195,-7.743 3.875,-1.836 -0.398,-6.527 -3.282,-4.703 -1.003,-58.137 2.441,-0.605 3.66,-6.317 v -11.625 l 3.672,-3.269 -0.195,-6.934 -3.661,-5.91" /><path
         id="path84"
         style="fill:none;stroke:#ffffff;stroke-width:7.97219992;stroke-linecap:butt;stroke-linejoin:miter;stroke-miterlimit:4;stroke-dasharray:none;stroke-opacity:1"
         d="m 516.105,679.246 c 99.333,-29.18 100.536,-137.5 100.536,-137.5 l 10.214,-2.437 -8.164,-10.411 -0.41,-13.046 9.59,-1.641 -11.824,-26.926 -1.02,-75.066 6.301,-0.821 2.277,-25.089 -85.902,10.41 -120.348,-0.203 -84.031,-9.387 2.645,25.5 4.695,0.215 -0.613,84.031 -12.641,18.77 13.043,5.3 -10.812,24.692 9.812,0.613 c 9.16,110.945 103.199,133.391 103.199,133.391 l -3.265,5.3 -0.199,6.946 3.773,2.957 v 11.633 l 4.383,6.628 2.258,0.801 -1.016,58.137 -3.273,4.703 -0.418,6.527 4.293,1.836 0.199,7.743 21.636,11.027 4.067,5.301 h 11.844 l 4.062,-5.301 20.195,-11.027 -0.195,-7.743 3.875,-1.836 -0.398,-6.527 -3.282,-4.703 -1.003,-58.137 2.441,-0.605 3.66,-6.317 v -11.625 l 3.672,-3.269 -0.195,-6.934 z" /><path
         id="path86"
         style="fill:#231f20;fill-opacity:1;fill-rule:nonzero;stroke:none"
         d="m 419.602,424.59 c -0.664,-9.793 -9.082,-9.629 -9.082,-9.629 l -59.321,-5.066 3.188,85.117 c 0,0 -0.442,8.543 4.715,10 5.156,1.453 48.117,7.715 54.113,8.25 5.996,0.539 5.32,-8.426 5.32,-8.426 0,0 1.707,-70.449 1.067,-80.246 z m -56.973,109.894 c 8.301,2.235 32.176,5.582 40.309,6.676 1.292,0.141 10.492,0.824 13.261,-7.769 0,0 1.535,-3.918 1.235,-8.672 h -0.391 l -62.832,-6.672 c 0,0 -0.383,14.043 8.418,16.437 z m 92.16,172.301 7.762,2.031 c 4.246,0.618 2.539,-12.847 2.539,-12.847 l -12.762,-1.739 c -0.758,12 2.461,12.555 2.461,12.555 z m 1.141,9.582 1.066,36.524 c 3.18,-0.176 7.192,-2.157 7.074,-11.336 l 0.461,-25.774 c -0.515,-2.89 -4.226,-3.293 -4.226,-3.293 -5,-0.758 -4.375,3.879 -4.375,3.879 z m 1.414,47.93 c 0,7.851 2.746,9.094 2.746,9.094 5.308,4.265 4.387,-3.379 4.387,-3.379 l 0.125,-10.254 -7.485,-2.942 z m 18.359,-54.563 14.207,-0.039 c 0,0 1.555,0.207 1.508,-3.425 l -0.109,-10.098 h -23.457 v 7.234 c 0,0 -0.645,5.746 7.851,6.328 z m -41.316,-165.203 87.343,-0.105 c 4.649,-0.488 10.567,-2.192 11.7,-7.774 0,0 0.515,-1.875 -0.239,-11.933 H 425.293 c -0.098,3.828 0.051,19.773 9.094,19.812 z m 104.898,-130.027 -3.64,84.566 c 0,0 -2.5,-73.668 -2.762,-78.828 -0.278,-5.164 -4.922,-5.203 -4.922,-5.203 l -103.598,0.313 1.391,91.925 c 0,0 -0.301,6.805 5.684,6.25 3.527,-0.324 106.597,-0.011 106.597,-0.011 0,0 69.32,-9.286 72.61,-9.793 3.3,-0.532 4.035,-3.774 4.035,-3.774 l 0.386,-6.797 7.461,17.629 -84.558,13.703 c -0.266,3.868 -0.75,19.375 9.011,18.258 l 70.586,-8.941 2.832,2.996 -8.843,1.699 c -1.125,79.524 -57.934,118.699 -57.934,118.699 38.109,-45.191 46.164,-88.203 47.578,-107.215 0.512,-7.89 -4.121,-8.234 -4.121,-8.234 l -53.316,8.781 c -0.266,6.59 2.949,84.207 -47.883,125.918 0,0 30.984,-34.941 35.43,-113.398 1.296,-12.246 -9.844,-11.731 -9.844,-11.731 l -92.918,-0.371 c -6.621,79.692 31.551,125.473 31.551,125.473 C 426,646.609 414.238,596.746 411.328,568.234 410.77,548.898 399.602,548.352 399.602,548.352 l -41.067,-5.559 c 6.945,100.703 75.735,128.477 91.66,134.141 l 11.551,2.683 2.524,0.332 c 0,0 -10.391,1.848 -10.082,6.836 0,0 -0.532,4.485 4.882,5.102 0,0 17.66,2.554 33.86,1.519 l 17.453,-3.902 c 0,0 2.847,-0.219 2.437,-4.082 l -0.086,-1.992 1.512,2.949 0.117,3.769 -3.98,2.657 -17.129,3.062 v 11.938 c 0,0 -0.207,1.758 2.234,1.328 l 11.414,-2.774 c 0,0 4.387,-1.593 5.508,-5.089 l 0.41,3.464 -3.054,5.434 -19.375,4.258 -0.325,-0.012 0.122,47.024 -16.211,-0.098 0.203,-2.856 c 0,0 11.418,-1.832 11.211,-16.929 l 0.605,-27.239 -17.219,-0.398 0.141,61.324 c 0.281,4.707 7.605,5.586 7.605,5.586 h 15.098 c 17.117,-4.43 15.684,-7.957 15.684,-7.957 l 3.984,5.715 v 2.754 l -20.293,4.473 c -22.019,-1.016 -24.07,0.527 -24.07,0.527 -1.938,0.703 2.351,3.047 2.351,3.047 4.18,2.461 2.942,3.261 2.942,3.261 -0.996,0.821 -1.414,2.461 -1.414,2.461 6.129,6.426 16.629,3.043 16.629,3.043 18.652,-6.109 20.195,-14.468 20.195,-14.468 l -0.195,7.031 -18.164,10.605 -3.379,4.383 -9.473,-0.098 -3.371,-4.285 -20.086,-10.91 0.215,-7.742 -4.52,-1.547 v -2.73 l 3.586,-4.907 0.207,-62.769 -2.344,-0.473 -2.972,-5.094 -0.09,-12.343 -3.652,-2.563 0.703,-4.871 5.547,-7.156 -0.762,-0.102 C 353.02,650.496 343.945,557.258 343.27,541.941 l -7.008,-0.41 9.855,-23.672 -11.976,-4.683 10.105,-14.184 0.363,-89.59 -5.539,-0.41 -1.558,-17.554 79.832,9.175 120.886,0.063 80.598,-9.785 -1.555,16.445 z m -37.058,322.461 0.293,-25.195 2.546,-0.508 0.122,44.683 -9.907,3.664 0.11,-3.984 c 0,0 6.836,-2.039 6.836,-18.66" /><path
         id="path88"
         style="fill:#fbbf16;fill-opacity:1;fill-rule:nonzero;stroke:none"
         d="m 585.344,484.324 -0.117,-57.937 19.293,-1.731 v 57.231 z m -31.535,-54.461 19.296,-1.726 v 59.148 l -19.167,2.449 z m -67.813,2.637 h 27.852 v 60.598 h -27.625 z m -42.82,0 h 27.847 v 60.598 h -27.632 z m -51.723,-3.762 18.985,2.141 0.187,59.25 -19.094,-2.734 z m -30.586,-3.355 18.961,2.137 0.211,57.519 -19.07,-2.754 -0.102,-56.902" /><path
         id="path90"
         style="fill:#231f20;fill-opacity:1;fill-rule:nonzero;stroke:none"
         d="m 585.344,484.23 v -7.453 c 0,0 15.613,-0.398 16.543,-51.882 l 2.633,-0.239 v 57.114 z m -31.426,-2.46 c 0,0 15.613,-3.165 16.52,-53.391 l 2.667,-0.242 v 59.148 l -19.167,2.449 z m -67.766,2.144 c 0,0 23.411,3.574 24.524,-51.414 h 3.172 v 60.598 h -27.625 z m -42.812,-0.098 c 0,0 23.496,0.508 24.402,-51.316 h 3.281 v 60.598 h -27.632 z m -51.809,-5.503 c 0,0 15.114,2.546 15.942,-47.766 l 2.965,0.332 0.187,59.25 -19.094,-2.734 z m -30.586,-3.579 c 0,0 15.832,2.661 15.91,-47.546 l 2.973,0.332 0.211,57.519 -19.07,-2.754 -0.024,-7.551" /><path
         id="path92"
         style="fill:#ffffff;fill-opacity:1;fill-rule:nonzero;stroke:none"
         d="m 858.145,106.211 v -2.656 h 1.64 c 1.445,0 3.43,-0.235 3.43,1.211 0,1.347 -1.137,1.445 -2.414,1.445 z m 6.464,-9.1094 h -1.757 l -2.723,4.9104 h -1.984 v -4.9104 h -1.543 v 10.6524 h 4.484 c 1.934,0 3.672,-0.574 3.672,-2.82 0,-2.102 -1.438,-2.871 -2.856,-2.922 z M 852.305,102.5 c 0,-4.4648 3.625,-7.9375 7.968,-7.9375 4.336,0 7.95,3.4727 7.95,7.9375 0,4.484 -3.614,7.93 -7.95,7.93 -4.343,0 -7.968,-3.446 -7.968,-7.93 z m -1.535,0 c 0,5.273 4.191,9.473 9.503,9.473 5.313,0 9.493,-4.2 9.493,-9.473 0,-5.2812 -4.18,-9.4805 -9.493,-9.4805 -5.312,0 -9.503,4.1993 -9.503,9.4805" /></g></g></svg>
